<?xml version="1.0" encoding="UTF-8" standalone="no"?>
<svg
   xmlns:dc="http://purl.org/dc/elements/1.1/"
   xmlns:cc="http://creativecommons.org/ns#"
   xmlns:rdf="http://www.w3.org/1999/02/22-rdf-syntax-ns#"
   xmlns:svg="http://www.w3.org/2000/svg"
   xmlns="http://www.w3.org/2000/svg"
   xmlns:sodipodi="http://sodipodi.sourceforge.net/DTD/sodipodi-0.dtd"
   xmlns:inkscape="http://www.inkscape.org/namespaces/inkscape"
   version="1.1"
   id="svg10"
   width="189.77341"
   height="193.67851"
   viewBox="0 0 189.77341 193.67851"
   sodipodi:docname="Empty_set_symbol.svg"
   inkscape:version="1.0.2-2 (e86c870879, 2021-01-15)">
  <metadata
     id="metadata16">
    <rdf:RDF>
      <cc:Work
         rdf:about="">
        <dc:format>image/svg+xml</dc:format>
        <dc:type
           rdf:resource="http://purl.org/dc/dcmitype/StillImage" />
        <dc:title></dc:title>
      </cc:Work>
    </rdf:RDF>
  </metadata>
  <defs
     id="defs14" />
  <sodipodi:namedview
     pagecolor="#ffffff"
     bordercolor="#666666"
     borderopacity="1"
     objecttolerance="10"
     gridtolerance="10"
     guidetolerance="10"
     inkscape:pageopacity="0"
     inkscape:pageshadow="2"
     inkscape:window-width="1920"
     inkscape:window-height="1017"
     id="namedview12"
     showgrid="false"
     fit-margin-top="0"
     fit-margin-left="0"
     fit-margin-right="0"
     fit-margin-bottom="0"
     inkscape:zoom="3.5681818"
     inkscape:cx="98.082803"
     inkscape:cy="107.48659"
     inkscape:window-x="1912"
     inkscape:window-y="-8"
     inkscape:window-maximized="1"
     inkscape:current-layer="g18" />
  <g
     inkscape:groupmode="layer"
     inkscape:label="Image"
     id="g18"
     transform="translate(-11.917197,-2.5134116)">
    <path
       style="fill:#ffffff;fill-opacity:1"
       d="m 15.5903,192.96689 c -2.020206,-1.77376 -3.673103,-3.66768 -3.673103,-4.2087 0,-0.54102 7.929812,-9.02295 17.621802,-18.84872 l 17.62181,-17.86503 -2.98813,-3.7977 C 26.421629,125.68644 23.270229,92.055435 36.454089,65.875788 47.930489,43.086699 67.678869,28.173006 92.755169,23.358031 112.20626,19.623166 134.58417,24.26498 150.9172,35.42249 l 6.5,4.440316 18.72766,-18.674697 18.72767,-18.6746974 3.5359,3.4271292 c 1.94474,1.884921 3.41729,3.747048 3.27233,4.1380602 -0.14496,0.391013 -8.28145,9.061091 -18.0811,19.266841 l -17.81755,18.555909 4.44964,6.273847 c 15.48032,21.82676 19.4565,47.455952 11.15093,71.875332 -7.91692,23.27672 -26.00629,41.22295 -49.96548,49.57011 -7.50209,2.61366 -9.02695,2.78713 -24.5,2.78713 -15.506091,0 -16.981901,-0.16884 -24.500001,-2.80293 -8.71884,-3.05478 -16.23644,-7.04491 -23.0004,-12.20796 l -4.34427,-3.31606 -17.90456,18.05555 -17.90456,18.05555 z M 123.85067,166.3366 c 18.36298,-4.64285 34.97106,-18.19697 43.38754,-35.40928 8.31291,-17.0005 9.675,-33.391071 4.21197,-50.684461 -2.5363,-8.028757 -7.94317,-18.068525 -11.88388,-22.066635 l -2.2402,-2.27282 -47.37118,48.102316 -47.371191,48.1023 2.91674,2.38319 c 3.96362,3.23858 14.8138,8.85407 20.95246,10.84391 11.38802,3.69141 25.286681,4.06361 37.397741,1.00148 z M 102.36585,96.268369 c 25.60324,-25.94938 46.55135,-47.60068 46.55135,-48.114004 0,-1.383457 -6.60684,-5.684693 -14.08756,-9.171396 -22.29795,-10.392893 -49.039941,-7.197932 -69.529631,8.306951 -23.26206,17.60279 -32.35116,50.218809 -21.64126,77.65913 2.68099,6.86908 10.19162,19.20078 11.42601,18.76036 0.40136,-0.1432 21.67785,-21.49167 47.281091,-47.441041 z"
       id="path22" />
  </g>
</svg>
